<svg xmlns="http://www.w3.org/2000/svg" width="1200" height="630" viewBox="0 0 1200 630" role="img" aria-label="TaskFlow 2026 preview image">
  <defs>
    <linearGradient id="bg" x1="0" y1="0" x2="1" y2="1">
      <stop offset="0%" stop-color="#091829" />
      <stop offset="55%" stop-color="#102a44" />
      <stop offset="100%" stop-color="#143653" />
    </linearGradient>
    <linearGradient id="mint" x1="0" y1="0" x2="1" y2="1">
      <stop offset="0%" stop-color="#0de2c8" />
      <stop offset="100%" stop-color="#14f195" />
    </linearGradient>
  </defs>

  <rect width="1200" height="630" fill="url(#bg)" />
  <circle cx="110" cy="90" r="180" fill="#0de2c8" opacity="0.12" />
  <circle cx="1060" cy="560" r="220" fill="#ff8c42" opacity="0.12" />

  <rect x="72" y="66" width="1056" height="498" rx="26" fill="#f6f8ff" opacity="0.08" />
  <rect x="92" y="90" width="1016" height="450" rx="20" fill="#ffffff" opacity="0.92" />

  <rect x="126" y="126" width="56" height="56" rx="14" fill="#071120" />
  <path d="M138 162c3-8 8-12 17-12 7 0 11 3 14 8" fill="none" stroke="url(#mint)" stroke-width="4" stroke-linecap="round" />
  <path d="M140 145h9M153 145h9" stroke="#d7f6ee" stroke-width="3" stroke-linecap="round" />

  <text x="200" y="152" font-family="Segoe UI, Arial, sans-serif" font-size="44" font-weight="700" fill="#0a1a2b">TaskFlow 2026</text>
  <text x="200" y="188" font-family="Segoe UI, Arial, sans-serif" font-size="20" fill="#314760">Calendar + Mini Kanban + Drag and Drop</text>

  <rect x="126" y="228" width="320" height="280" rx="16" fill="#f1f5ff" stroke="#d6e2f5" />
  <text x="146" y="258" font-family="Segoe UI, Arial, sans-serif" font-size="18" font-weight="700" fill="#0a1a2b">Calendar</text>
  <g fill="#ffffff" stroke="#c6d7ed">
    <rect x="146" y="278" width="36" height="32" rx="8" />
    <rect x="188" y="278" width="36" height="32" rx="8" />
    <rect x="230" y="278" width="36" height="32" rx="8" />
    <rect x="272" y="278" width="36" height="32" rx="8" />
    <rect x="314" y="278" width="36" height="32" rx="8" />
    <rect x="356" y="278" width="36" height="32" rx="8" />
    <rect x="398" y="278" width="36" height="32" rx="8" />
  </g>
  <circle cx="332" cy="294" r="5" fill="#ff8c42" />
  <rect x="146" y="324" width="288" height="18" rx="9" fill="#e5edf9" />
  <rect x="146" y="350" width="258" height="18" rx="9" fill="#e5edf9" />

  <rect x="474" y="228" width="614" height="280" rx="16" fill="#f1f5ff" stroke="#d6e2f5" />
  <text x="494" y="258" font-family="Segoe UI, Arial, sans-serif" font-size="18" font-weight="700" fill="#0a1a2b">Mini Kanban</text>

  <rect x="494" y="278" width="280" height="210" rx="12" fill="#ffffff" stroke="#d6e2f5" />
  <text x="510" y="304" font-family="Segoe UI, Arial, sans-serif" font-size="14" font-weight="700" fill="#314760">Active</text>
  <rect x="510" y="320" width="248" height="44" rx="10" fill="#eff8f6" stroke="#bde8df" />
  <rect x="510" y="372" width="248" height="44" rx="10" fill="#fff4ec" stroke="#ffd5be" />

  <rect x="792" y="278" width="280" height="210" rx="12" fill="#ffffff" stroke="#d6e2f5" />
  <text x="808" y="304" font-family="Segoe UI, Arial, sans-serif" font-size="14" font-weight="700" fill="#314760">Done</text>
  <rect x="808" y="320" width="248" height="44" rx="10" fill="#edf1fb" stroke="#c9d5ee" />

  <rect x="126" y="528" width="420" height="10" rx="5" fill="#dce6f6" />
  <rect x="126" y="528" width="272" height="10" rx="5" fill="url(#mint)" />
</svg>
